<svg xmlns="http://www.w3.org/2000/svg" viewBox="0 0 200 200" width="200" height="200">
  <rect width="200" height="200" fill="#000000" rx="20"/>
  <!-- Apple body - classic shape -->
  <path d="M 100 48 
           C 88 43, 75 48, 68 58 
           C 62 53, 52 58, 46 68 
           C 50 73, 54 78, 58 83 
           C 62 88, 66 93, 70 98 
           C 74 102, 78 104, 84 104 
           C 88 104, 92 103, 96 102 
           C 100 101, 104 102, 108 103 
           C 112 104, 116 104, 122 104 
           C 126 102, 130 98, 134 93 
           C 138 88, 142 83, 146 78 
           C 150 73, 154 68, 154 63 
           C 148 58, 138 53, 132 58 
           C 125 48, 112 43, 100 48 Z" 
        fill="white"/>
  <!-- Bite mark (right side) -->
  <circle cx="118" cy="80" r="7" fill="#000000"/>
  <!-- Apple leaf -->
  <path d="M 100 48 
           Q 108 40, 112 48 
           Q 110 46, 108 44 
           Q 105 42, 100 48 Z" 
        fill="white"/>
  <ellipse cx="110" cy="46" rx="4" ry="9" fill="white" transform="rotate(-28 110 46)"/>
</svg>
