<svg xmlns="http://www.w3.org/2000/svg" viewBox="0 0 200 200" width="200" height="200">
  <rect width="200" height="200" fill="#000000" rx="20"/>
  <path d="M100 50 C85 45, 70 50, 65 60 C60 55, 50 60, 45 70 C55 75, 60 85, 65 95 C70 100, 75 105, 85 100 C90 95, 95 90, 100 85 C105 80, 110 75, 115 70 C110 65, 105 60, 100 50 Z M100 110 C110 115, 120 110, 125 100 C130 105, 140 100, 145 90 C135 85, 130 75, 125 65 C120 60, 115 55, 105 60 C100 65, 95 70, 90 75 C85 80, 80 85, 75 90 C80 95, 85 100, 100 110 Z" fill="white"/>
</svg>
