<svg xmlns="http://www.w3.org/2000/svg" viewBox="0 0 200 200" width="200" height="200">
  <rect width="200" height="200" fill="#000000" rx="20"/>
  <!-- Apple Logo - Simple and clear -->
  <path d="M 100 50 
           C 85 45, 70 50, 65 60 
           C 60 55, 50 60, 45 70 
           C 50 75, 55 80, 60 85 
           C 65 90, 70 95, 80 100 
           C 90 95, 100 90, 110 95 
           C 120 100, 130 95, 135 90 
           C 140 85, 145 80, 150 75 
           C 145 65, 140 60, 135 55 
           C 130 50, 115 45, 100 50 Z" 
        fill="white"/>
  <!-- Leaf -->
  <ellipse cx="108" cy="48" rx="5" ry="9" fill="white" transform="rotate(-25 108 48)"/>
</svg>
